<?xml version="1.0" standalone="no"?>
<!DOCTYPE svg PUBLIC "-//W3C//DTD SVG 20010904//EN"
 "http://www.w3.org/TR/2001/REC-SVG-20010904/DTD/svg10.dtd">
<svg version="1.0" xmlns="http://www.w3.org/2000/svg"
 width="400.000000pt" height="400.000000pt" viewBox="0 0 400.000000 400.000000"
 preserveAspectRatio="xMidYMid meet">
<metadata>
Created by potrace 1.11, written by Peter Selinger 2001-2013
</metadata>
<g transform="translate(0.000000,400.000000) scale(0.100000,-0.100000)"
fill="#000000" stroke="none">
<path d="M1805 3990 c-851 -95 -1532 -680 -1740 -1494 -46 -182 -59 -293 -59
-496 0 -203 13 -314 59 -496 274 -1076 1377 -1721 2453 -1434 1063 284 1696
1381 1412 2448 -204 762 -844 1337 -1625 1457 -122 19 -391 27 -500 15z m-375
-1705 c194 -371 358 -682 366 -692 11 -15 13 53 13 447 0 464 -8 682 -29 752
-16 57 -49 88 -105 103 -43 10 -50 16 -53 39 l-3 26 225 0 226 0 0 -29 c0 -25
-4 -29 -38 -34 -56 -9 -100 -52 -119 -117 -15 -49 -17 -147 -20 -913 -4 -804
-5 -858 -21 -855 -11 2 -148 251 -402 734 -212 402 -400 757 -417 790 l-33 59
3 -670 c2 -493 6 -680 15 -706 20 -60 48 -87 108 -105 46 -13 54 -19 54 -40
l0 -24 -225 0 -225 0 0 25 c0 19 6 26 28 30 43 9 94 38 114 65 10 14 22 49 28
79 6 33 10 334 10 781 l0 727 -39 60 c-36 57 -64 77 -116 85 -13 2 -21 12 -23
31 l-3 27 164 0 165 0 352 -675z m1381 661 c151 -32 259 -122 310 -256 10 -26
23 -86 29 -134 29 -217 -52 -411 -200 -480 l-47 -22 65 -34 c199 -103 286
-321 237 -594 -32 -178 -134 -302 -294 -356 -56 -19 -85 -20 -421 -20 l-360 0
0 24 c0 21 7 26 52 36 29 6 63 17 74 25 49 32 49 37 49 875 0 855 2 819 -56
863 -15 10 -47 22 -73 24 -43 5 -46 8 -46 34 l0 29 308 0 c225 0 325 -4 373
-14z"/>
<path d="M2511 2813 c-7 -23 -11 -171 -11 -370 l0 -333 128 0 c118 0 132 2
180 26 95 47 142 139 149 294 8 161 -28 274 -113 349 -59 52 -122 71 -235 71
l-88 0 -10 -37z"/>
<path d="M2500 1624 c0 -383 5 -435 41 -455 27 -14 168 -13 222 2 112 30 171
88 213 209 25 75 27 280 2 360 -52 166 -154 233 -380 247 l-98 6 0 -369z"/>
</g>
</svg>
